<?xml version="1.0" encoding="UTF-8" standalone="no" ?>
<!DOCTYPE svg PUBLIC "-//W3C//DTD SVG 1.1//EN" "http://www.w3.org/Graphics/SVG/1.1/DTD/svg11.dtd">
<svg xmlns="http://www.w3.org/2000/svg" xmlns:xlink="http://www.w3.org/1999/xlink" version="1.1" width="1080" height="1080" viewBox="0 0 1080 1080" xml:space="preserve">
<desc>Created with Fabric.js 5.2.4</desc>
<defs>
</defs>
<rect x="0" y="0" width="100%" height="100%" fill="transparent"></rect>
<g transform="matrix(1 0 0 1 540 540)" id="dc1a606c-219e-4c1e-b526-999da7068869"  >
<rect style="stroke: none; stroke-width: 1; stroke-dasharray: none; stroke-linecap: butt; stroke-dashoffset: 0; stroke-linejoin: miter; stroke-miterlimit: 4; fill: rgb(0,0,0); fill-rule: nonzero; opacity: 1; visibility: hidden;" vector-effect="non-scaling-stroke"  x="-540" y="-540" rx="0" ry="0" width="1080" height="1080" />
</g>
<g transform="matrix(1 0 0 1 540 540)" id="ea343d68-fbf4-4a05-a416-4d7b019b14f0"  >
</g>
<g transform="matrix(10.8 0 0 10.8 540 540)" id="Layer_4"  >
<path style="stroke: none; stroke-width: 1; stroke-dasharray: none; stroke-linecap: butt; stroke-dashoffset: 0; stroke-linejoin: miter; stroke-miterlimit: 4; fill: rgb(0,0,0); fill-rule: nonzero; opacity: 1;"  transform=" translate(-50, -50.01)" d="M 40.31 72.83 C 40.32 76.53 40.29 80.23 40.35 83.94 C 40.370000000000005 85.11 40.45 86.28 40.480000000000004 87.46 C 40.540000000000006 90.32 39.45 92.74 37.550000000000004 94.80999999999999 C 35.36000000000001 97.19999999999999 32.59 98.60999999999999 29.440000000000005 99.27999999999999 C 25.480000000000004 100.11999999999999 21.680000000000007 99.66999999999999 18.070000000000007 97.80999999999999 C 15.700000000000006 96.58999999999999 13.760000000000009 94.85 12.520000000000007 92.47999999999999 C 10.380000000000006 88.36999999999999 10.710000000000006 84.38 13.350000000000007 80.57 C 13.470000000000006 80.39999999999999 13.580000000000007 80.22999999999999 13.690000000000007 80.05999999999999 C 14.500000000000007 79.28999999999999 15.230000000000008 78.42999999999999 16.140000000000008 77.75999999999999 C 18.35000000000001 76.13999999999999 20.81000000000001 75.17999999999999 23.520000000000007 74.82999999999998 C 27.150000000000006 74.35999999999999 30.580000000000005 74.94999999999999 33.800000000000004 76.69999999999999 C 34.18000000000001 76.90999999999998 34.260000000000005 76.85 34.290000000000006 76.38999999999999 C 34.300000000000004 76.20999999999998 34.290000000000006 76.02999999999999 34.290000000000006 75.84999999999998 C 34.290000000000006 63.30999999999998 34.38000000000001 50.76999999999998 34.25000000000001 38.22999999999998 C 34.18000000000001 30.849999999999984 34.24000000000001 23.479999999999983 34.17000000000001 16.099999999999984 C 34.17000000000001 15.919999999999984 34.18000000000001 15.739999999999984 34.17000000000001 15.559999999999985 C 34.13000000000001 15.159999999999984 34.31000000000001 14.989999999999984 34.71000000000001 14.879999999999985 C 39.21000000000001 13.679999999999986 43.71000000000001 12.449999999999985 48.21000000000001 11.229999999999984 C 53.370000000000005 9.829999999999984 58.540000000000006 8.439999999999984 63.70000000000001 7.039999999999984 C 67.81000000000002 5.929999999999984 71.91000000000001 4.819999999999984 76.02000000000001 3.709999999999984 C 80 2.63 83.98 1.55 87.97 0.47 C 88.09 0.43999999999999995 88.21 0.38 88.34 0.36 C 88.78 0.27 88.86 0.33999999999999997 88.88000000000001 0.8200000000000001 C 88.89000000000001 0.9700000000000001 88.88000000000001 1.1300000000000001 88.88000000000001 1.28 C 88.87 26.51 88.86000000000001 51.74 88.86000000000001 76.98 C 88.86000000000001 77.65 88.71000000000001 78.3 88.75000000000001 78.96000000000001 C 88.01000000000002 83.18 85.53000000000002 86.08000000000001 81.86000000000001 88.08000000000001 C 78.85000000000001 89.72000000000001 75.61000000000001 90.28000000000002 72.24000000000001 89.96000000000001 C 68.49000000000001 89.61000000000001 65.18 88.18 62.53000000000001 85.44000000000001 C 60.80000000000001 83.65 59.68000000000001 81.51 59.36000000000001 79.03000000000002 C 59.160000000000004 77.48000000000002 59.230000000000004 75.92000000000002 59.730000000000004 74.41000000000001 C 59.82000000000001 74.14000000000001 59.88 73.87 59.96 73.60000000000001 C 60.050000000000004 73.45 60.15 73.30000000000001 60.22 73.14000000000001 C 61.199999999999996 70.88000000000001 62.769999999999996 69.10000000000001 64.81 67.75000000000001 C 68.10000000000001 65.58000000000001 71.72 64.72000000000001 75.66 65.14000000000001 C 78.11 65.40000000000002 80.39 66.14000000000001 82.49 67.41000000000001 C 82.64999999999999 67.51 82.8 67.69000000000001 83.03 67.65 C 83.14 67.43 83.09 67.2 83.09 66.98 C 83.09 52.96000000000001 83.09 38.940000000000005 83.09 24.92 C 83.09 24.740000000000002 83.09 24.560000000000002 83.08 24.380000000000003 C 83.07 24.150000000000002 82.92999999999999 24.070000000000004 82.72 24.1 C 82.57 24.12 82.42 24.18 82.28 24.220000000000002 C 76.65 25.740000000000002 71.02 27.26 65.39 28.78 C 60.3 30.150000000000002 55.21 31.53 50.120000000000005 32.9 C 46.95 33.75 43.77 34.61 40.60000000000001 35.46 C 40.00000000000001 35.62 40.00000000000001 35.63 39.99000000000001 36.230000000000004 C 39.99000000000001 36.38 39.99000000000001 36.540000000000006 39.99000000000001 36.690000000000005 C 40.040000000000006 40.77 40.03000000000001 44.86000000000001 40.09000000000001 48.940000000000005 C 40.21000000000001 56.720000000000006 40.110000000000014 64.51 40.28000000000001 72.30000000000001 C 40.28 72.47 40.3 72.65 40.31 72.83 z" stroke-linecap="round" />
</g>
</svg>