<?xml version="1.0" encoding="UTF-8" standalone="no" ?>
<!DOCTYPE svg PUBLIC "-//W3C//DTD SVG 1.1//EN" "http://www.w3.org/Graphics/SVG/1.1/DTD/svg11.dtd">
<svg xmlns="http://www.w3.org/2000/svg" xmlns:xlink="http://www.w3.org/1999/xlink" version="1.1" width="1080" height="1080" viewBox="0 0 1080 1080" xml:space="preserve">
<desc>Created with Fabric.js 5.2.4</desc>
<defs>
</defs>
<rect x="0" y="0" width="100%" height="100%" fill="transparent"></rect>
<g transform="matrix(1 0 0 1 540 540)" id="dc1a606c-219e-4c1e-b526-999da7068869"  >
<rect style="stroke: none; stroke-width: 1; stroke-dasharray: none; stroke-linecap: butt; stroke-dashoffset: 0; stroke-linejoin: miter; stroke-miterlimit: 4; fill: rgb(255,255,255); fill-rule: nonzero; opacity: 1; visibility: hidden;" vector-effect="non-scaling-stroke"  x="-540" y="-540" rx="0" ry="0" width="1080" height="1080" />
</g>
<g transform="matrix(1 0 0 1 540 540)" id="ea343d68-fbf4-4a05-a416-4d7b019b14f0"  >
</g>
<g transform="matrix(54 0 0 54 540 540)"  >
<path style="stroke: rgb(0,0,0); stroke-width: 1.3; stroke-dasharray: none; stroke-linecap: butt; stroke-dashoffset: 0; stroke-linejoin: miter; stroke-miterlimit: 4; fill: none; fill-rule: nonzero; opacity: 1;"  transform=" translate(-10, -9.93)" d="M 19.35 10.0611 C 19.35 14.4937 16.306 18.2075 12.2125 19.2072 L 12.2125 13.6194 L 13.8926 13.6194 L 14.451 13.6194 L 14.5352 13.0674 L 14.9785 10.1591 L 15.0925 9.41111 L 14.3359 9.41111 L 12.2125 9.41111 L 12.2125 8.17381 C 12.2125 7.86961 12.2877 7.64929 12.4044 7.51352 C 12.5054 7.39602 12.7135 7.25261 13.1921 7.25261 L 14.4531 7.25261 L 15.1031 7.25261 L 15.1031 6.60261 L 15.1031 4.12663 L 15.1031 3.57873 L 14.5631 3.486 L 14.4531 4.12663 C 14.5631 3.486 14.5631 3.48599 14.563 3.48598 L 14.5629 3.48596 L 14.5625 3.4859 L 14.5615 3.48572 L 14.5582 3.48516 L 14.5467 3.48324 L 14.505 3.47642 C 14.4691 3.47066 14.4175 3.46257 14.3525 3.45294 C 14.2225 3.43369 14.0384 3.40819 13.8192 3.38272 C 13.3835 3.3321 12.7965 3.28012 12.2146 3.28012 C 10.9401 3.28012 9.81502 3.67128 9.00826 4.48373 C 8.20133 5.29635 7.7875 6.45514 7.7875 7.84452 L 7.7875 9.41111 L 5.89844 9.41111 L 5.24844 9.41111 L 5.24844 10.0611 L 5.24844 12.9694 L 5.24844 13.6194 L 5.89844 13.6194 L 7.7875 13.6194 L 7.7875 19.2072 C 3.694 18.2075 0.65 14.4937 0.65 10.0611 C 0.65 4.85976 4.83986 0.65 10 0.65 C 15.1601 0.65 19.35 4.85976 19.35 10.0611 Z" stroke-linecap="round" />
</g>
</svg>