<?xml version="1.0" encoding="UTF-8" standalone="no" ?>
<!DOCTYPE svg PUBLIC "-//W3C//DTD SVG 1.1//EN" "http://www.w3.org/Graphics/SVG/1.1/DTD/svg11.dtd">
<svg xmlns="http://www.w3.org/2000/svg" xmlns:xlink="http://www.w3.org/1999/xlink" version="1.1" width="1080" height="1080" viewBox="0 0 1080 1080" xml:space="preserve">
<desc>Created with Fabric.js 5.2.4</desc>
<defs>
</defs>
<rect x="0" y="0" width="100%" height="100%" fill="transparent"></rect>
<g transform="matrix(1 0 0 1 540 540)" id="dc1a606c-219e-4c1e-b526-999da7068869"  >
<rect style="stroke: none; stroke-width: 1; stroke-dasharray: none; stroke-linecap: butt; stroke-dashoffset: 0; stroke-linejoin: miter; stroke-miterlimit: 4; fill: rgb(0,0,0); fill-rule: nonzero; opacity: 1; visibility: hidden;" vector-effect="non-scaling-stroke"  x="-540" y="-540" rx="0" ry="0" width="1080" height="1080" />
</g>
<g transform="matrix(1 0 0 1 540 540)" id="ea343d68-fbf4-4a05-a416-4d7b019b14f0"  >
</g>
<g transform="matrix(20.85 0 0 20.85 540 540)"  >
<g style=""   >
		<g transform="matrix(1 0 0 1 0 0)" id="Layer_1"  >
<path style="stroke: none; stroke-width: 1; stroke-dasharray: none; stroke-linecap: butt; stroke-dashoffset: 0; stroke-linejoin: miter; stroke-miterlimit: 4; fill: rgb(0,0,0); fill-rule: nonzero; opacity: 1;" vector-effect="non-scaling-stroke"  transform=" translate(-25.9, -25.9)" d="M 35.8 51.8 C 36.099999999999994 51.8 36.3 51.8 36.599999999999994 51.8 C 40.599999999999994 51.8 44.599999999999994 51.8 48.599999999999994 51.8 C 50.599999999999994 51.8 51.8 50.599999999999994 51.8 48.599999999999994 C 51.8 33.49999999999999 51.8 18.299999999999994 51.8 3.1999999999999957 C 51.8 1.1999999999999957 50.599999999999994 -4.440892098500626e-15 48.599999999999994 -4.440892098500626e-15 C 33.5 0 18.4 0 3.2 0 C 1.2 0 0 1.2 0 3.2 C 0 18.3 0 33.5 0 48.6 C 0 50.6 1.2 51.800000000000004 3.2 51.800000000000004 C 11.100000000000001 51.800000000000004 19 51.800000000000004 27 51.800000000000004 C 27.6 51.800000000000004 27.8 51.7 27.8 51.1 C 27.8 44.9 27.8 38.6 27.8 32.400000000000006 C 27.8 31.900000000000006 27.6 31.800000000000004 27.1 31.800000000000004 C 25.3 31.800000000000004 23.400000000000002 31.800000000000004 21.6 31.800000000000004 C 21.1 31.800000000000004 20.900000000000002 31.700000000000003 20.900000000000002 31.200000000000003 C 20.900000000000002 29.000000000000004 20.900000000000002 26.700000000000003 20.900000000000002 24.500000000000004 C 20.900000000000002 24.000000000000004 21.1 23.900000000000002 21.500000000000004 23.900000000000002 C 23.100000000000005 23.900000000000002 24.800000000000004 23.900000000000002 26.400000000000006 23.900000000000002 C 27.600000000000005 23.900000000000002 27.600000000000005 23.900000000000002 27.600000000000005 22.700000000000003 C 27.600000000000005 20.500000000000004 27.500000000000004 18.200000000000003 27.800000000000004 16.000000000000004 C 28.300000000000004 11.500000000000004 31.300000000000004 8.600000000000003 35.7 7.900000000000004 C 38.300000000000004 7.5000000000000036 40.900000000000006 7.800000000000004 43.5 8.000000000000004 C 43.9 8.000000000000004 43.9 8.300000000000004 43.9 8.600000000000003 C 43.9 10.700000000000003 43.9 12.700000000000003 43.9 14.800000000000004 C 43.9 15.200000000000005 43.699999999999996 15.300000000000004 43.3 15.300000000000004 C 42.099999999999994 15.300000000000004 40.8 15.300000000000004 39.599999999999994 15.300000000000004 C 38.99999999999999 15.300000000000004 38.39999999999999 15.400000000000004 37.89999999999999 15.500000000000004 C 36.79999999999999 15.800000000000004 35.99999999999999 16.600000000000005 35.89999999999999 17.700000000000003 C 35.79999999999999 19.700000000000003 35.79999999999999 21.800000000000004 35.79999999999999 23.800000000000004 C 35.79999999999999 23.800000000000004 35.79999999999999 23.800000000000004 35.89999999999999 23.900000000000006 C 36.099999999999994 23.900000000000006 36.29999999999999 23.900000000000006 36.49999999999999 23.900000000000006 C 38.599999999999994 23.900000000000006 40.79999999999999 23.900000000000006 42.89999999999999 23.900000000000006 C 43.39999999999999 23.900000000000006 43.599999999999994 24.000000000000007 43.49999999999999 24.600000000000005 C 43.199999999999996 26.800000000000004 42.89999999999999 29.000000000000007 42.699999999999996 31.200000000000003 C 42.599999999999994 31.700000000000003 42.4 31.900000000000002 41.9 31.900000000000002 C 40.1 31.900000000000002 38.3 31.900000000000002 36.5 31.900000000000002 C 36 31.900000000000002 35.8 32 35.8 32.6 C 35.8 38.800000000000004 35.8 45 35.8 51.2 C 35.8 51.3 35.8 51.5 35.8 51.8 z" stroke-linecap="round" />
</g>
		<g transform="matrix(1 0 0 1 0 0)" id="Layer_1"  >
<path style="stroke: none; stroke-width: 1; stroke-dasharray: none; stroke-linecap: butt; stroke-dashoffset: 0; stroke-linejoin: miter; stroke-miterlimit: 4; fill: rgb(0,0,0); fill-rule: nonzero; opacity: 1;" vector-effect="non-scaling-stroke"  transform=" translate(-25.9, -25.9)" d="M 35.8 51.8 C 35.8 51.5 35.8 51.3 35.8 51.099999999999994 C 35.8 44.89999999999999 35.8 38.699999999999996 35.8 32.49999999999999 C 35.8 31.89999999999999 36 31.799999999999994 36.5 31.799999999999994 C 38.3 31.799999999999994 40.1 31.799999999999994 41.9 31.799999999999994 C 42.4 31.799999999999994 42.6 31.599999999999994 42.699999999999996 31.099999999999994 C 42.99999999999999 28.899999999999995 43.199999999999996 26.699999999999996 43.49999999999999 24.499999999999993 C 43.599999999999994 23.999999999999993 43.39999999999999 23.799999999999994 42.89999999999999 23.799999999999994 C 40.79999999999999 23.799999999999994 38.599999999999994 23.799999999999994 36.49999999999999 23.799999999999994 C 36.29999999999999 23.799999999999994 36.099999999999994 23.799999999999994 35.89999999999999 23.799999999999994 C 35.79999999999999 23.699999999999992 35.79999999999999 23.699999999999992 35.79999999999999 23.699999999999992 C 35.79999999999999 21.699999999999992 35.79999999999999 19.599999999999994 35.89999999999999 17.599999999999994 C 35.99999999999999 16.399999999999995 36.79999999999999 15.599999999999994 37.89999999999999 15.399999999999995 C 38.49999999999999 15.299999999999995 38.99999999999999 15.199999999999996 39.599999999999994 15.199999999999996 C 40.8 15.199999999999996 42.099999999999994 15.199999999999996 43.3 15.199999999999996 C 43.699999999999996 15.199999999999996 43.9 15.099999999999996 43.9 14.699999999999996 C 43.9 12.599999999999996 43.9 10.599999999999996 43.9 8.499999999999996 C 43.9 8.199999999999996 43.8 7.899999999999997 43.5 7.899999999999997 C 40.9 7.799999999999997 38.3 7.399999999999997 35.7 7.799999999999997 C 31.300000000000004 8.499999999999996 28.300000000000004 11.399999999999997 27.800000000000004 15.899999999999997 C 27.500000000000004 18.099999999999998 27.700000000000003 20.4 27.600000000000005 22.599999999999998 C 27.600000000000005 23.799999999999997 27.600000000000005 23.799999999999997 26.400000000000006 23.799999999999997 C 24.800000000000004 23.799999999999997 23.100000000000005 23.799999999999997 21.500000000000007 23.799999999999997 C 21.000000000000007 23.799999999999997 20.900000000000006 23.9 20.900000000000006 24.4 C 20.900000000000006 26.599999999999998 20.900000000000006 28.9 20.900000000000006 31.099999999999998 C 20.900000000000006 31.599999999999998 21.100000000000005 31.7 21.600000000000005 31.7 C 23.400000000000006 31.7 25.300000000000004 31.7 27.100000000000005 31.7 C 27.600000000000005 31.7 27.800000000000004 31.8 27.800000000000004 32.3 C 27.800000000000004 38.5 27.800000000000004 44.8 27.800000000000004 51 C 27.800000000000004 51.6 27.600000000000005 51.7 27.000000000000004 51.7 C 19.1 51.7 11.200000000000003 51.7 3.200000000000003 51.7 C 1.300000000000003 51.7 2.6645352591003757e-15 50.5 2.6645352591003757e-15 48.5 C 0 33.5 0 18.3 0 3.2 C 0 1.2 1.2 0 3.2 0 C 18.3 0 33.5 0 48.6 0 C 50.6 0 51.800000000000004 1.2 51.800000000000004 3.2 C 51.800000000000004 18.3 51.800000000000004 33.5 51.800000000000004 48.6 C 51.800000000000004 50.6 50.6 51.800000000000004 48.6 51.800000000000004 C 44.6 51.800000000000004 40.6 51.800000000000004 36.6 51.800000000000004 C 36.3 51.8 36.1 51.8 35.8 51.8 z" stroke-linecap="round" />
</g>
</g>
</g>
</svg>