<?xml version="1.0" encoding="UTF-8" standalone="no" ?>
<!DOCTYPE svg PUBLIC "-//W3C//DTD SVG 1.1//EN" "http://www.w3.org/Graphics/SVG/1.1/DTD/svg11.dtd">
<svg xmlns="http://www.w3.org/2000/svg" xmlns:xlink="http://www.w3.org/1999/xlink" version="1.1" width="1080" height="1080" viewBox="0 0 1080 1080" xml:space="preserve">
<desc>Created with Fabric.js 5.2.4</desc>
<defs>
</defs>
<rect x="0" y="0" width="100%" height="100%" fill="transparent"></rect>
<g transform="matrix(1 0 0 1 540 540)" id="dc1a606c-219e-4c1e-b526-999da7068869"  >
<rect style="stroke: none; stroke-width: 1; stroke-dasharray: none; stroke-linecap: butt; stroke-dashoffset: 0; stroke-linejoin: miter; stroke-miterlimit: 4; fill: rgb(0,0,0); fill-rule: nonzero; opacity: 1; visibility: hidden;" vector-effect="non-scaling-stroke"  x="-540" y="-540" rx="0" ry="0" width="1080" height="1080" />
</g>
<g transform="matrix(1 0 0 1 540 540)" id="ea343d68-fbf4-4a05-a416-4d7b019b14f0"  >
</g>
<g transform="matrix(10.8 0 0 10.8 540 540)"  >
<g style=""   >
		<g transform="matrix(1 0 0 1 0.18 -0.07)" id="Layer_4"  >
<path style="stroke: none; stroke-width: 1; stroke-dasharray: none; stroke-linecap: butt; stroke-dashoffset: 0; stroke-linejoin: miter; stroke-miterlimit: 4; fill: rgb(0,0,0); fill-rule: nonzero; opacity: 1;" vector-effect="non-scaling-stroke"  transform=" translate(-50.18, -49.93)" d="M 0.23 70.12 C 0.23 56.760000000000005 0.23 43.400000000000006 0.23 30.040000000000006 C 0.39 28.900000000000006 0.63 27.760000000000005 0.7 26.610000000000007 C 1.46 13.68 9.67 3.9 22.2 1.19 C 24.86 0.61 27.59 0.3799999999999999 30.29 -0.020000000000000018 C 43.65 -0.020000000000000018 57.01 -0.020000000000000018 70.37 -0.020000000000000018 C 71.43 0.13999999999999999 72.48 0.38 73.55000000000001 0.44 C 88.4 1.25 99.47 11.97 99.84 26.78 C 100.23 42.370000000000005 100.24000000000001 57.99 99.82000000000001 73.57 C 99.43 88.13999999999999 88.39000000000001 99.17999999999999 73.83000000000001 99.57 C 58.16000000000001 99.99 42.46000000000001 99.94999999999999 26.780000000000015 99.58 C 13.85 99.27 4 90.56 1.39 78.01 C 0.85 75.41 0.61 72.75 0.23 70.12 z M 50.36 90.71 C 50.36 90.69999999999999 50.36 90.69 50.36 90.69 C 57.7 90.67999999999999 65.05 90.86 72.39 90.62 C 78.37 90.43 83.68 88.37 87.34 83.28 C 89.81 79.85 90.88000000000001 75.88 90.91 71.74000000000001 C 91.00999999999999 57.47000000000001 91.17999999999999 43.19000000000001 90.89999999999999 28.930000000000007 C 90.67 16.71 83.84 9.78 71.68 9.51 C 57.5 9.19 43.3 9.19 29.12 9.5 C 16.840000000000003 9.77 10.02 16.56 9.75 28.77 C 9.44 43.03 9.45 57.31 9.76 71.58 C 10.02 83.45 17 90.27 28.83 90.67 C 36 90.91 43.19 90.71 50.36 90.71 z" stroke-linecap="round" />
</g>
		<g transform="matrix(1 0 0 1 0.32 0.07)" id="Layer_4"  >
<path style="stroke: none; stroke-width: 1; stroke-dasharray: none; stroke-linecap: butt; stroke-dashoffset: 0; stroke-linejoin: miter; stroke-miterlimit: 4; fill: rgb(0,0,0); fill-rule: nonzero; opacity: 1;" vector-effect="non-scaling-stroke"  transform=" translate(-50.32, -50.07)" d="M 50.11 75.76 C 35.75 75.62 24.45 64.11 24.63 49.8 C 24.81 35.44 36.33 24.179999999999996 50.66 24.379999999999995 C 64.92 24.579999999999995 76.1 35.98 76.02 50.22 C 75.93 64.56 64.43 75.9 50.11 75.76 z M 66.93 50.12 C 66.94000000000001 40.79 59.620000000000005 33.459999999999994 50.31 33.47 C 40.99 33.48 33.7 40.81 33.72 50.15 C 33.74 59.339999999999996 41.03 66.65 50.209999999999994 66.68 C 59.55 66.71 66.92 59.41 66.93 50.12 z" stroke-linecap="round" />
</g>
		<g transform="matrix(1 0 0 1 27 -26.61)" id="Layer_4"  >
<path style="stroke: none; stroke-width: 1; stroke-dasharray: none; stroke-linecap: butt; stroke-dashoffset: 0; stroke-linejoin: miter; stroke-miterlimit: 4; fill: rgb(0,0,0); fill-rule: nonzero; opacity: 1;" vector-effect="non-scaling-stroke"  transform=" translate(-77, -23.39)" d="M 77.02 17.38 C 80.46 17.36 83.02 19.89 83.03 23.32 C 83.04 26.67 80.37 29.4 77.07000000000001 29.41 C 73.83000000000001 29.42 70.99000000000001 26.61 70.97000000000001 23.38 C 70.95 20.09 73.67 17.39 77.02 17.38 z" stroke-linecap="round" />
</g>
</g>
</g>
</svg>