<?xml version="1.0" encoding="UTF-8" standalone="no" ?>
<!DOCTYPE svg PUBLIC "-//W3C//DTD SVG 1.1//EN" "http://www.w3.org/Graphics/SVG/1.1/DTD/svg11.dtd">
<svg xmlns="http://www.w3.org/2000/svg" xmlns:xlink="http://www.w3.org/1999/xlink" version="1.1" width="1080" height="1080" viewBox="0 0 1080 1080" xml:space="preserve">
<desc>Created with Fabric.js 5.2.4</desc>
<defs>
</defs>
<rect x="0" y="0" width="100%" height="100%" fill="transparent"></rect>
<g transform="matrix(1 0 0 1 540 540)" id="dc1a606c-219e-4c1e-b526-999da7068869"  >
<rect style="stroke: none; stroke-width: 1; stroke-dasharray: none; stroke-linecap: butt; stroke-dashoffset: 0; stroke-linejoin: miter; stroke-miterlimit: 4; fill: rgb(255,255,255); fill-rule: nonzero; opacity: 1; visibility: hidden;" vector-effect="non-scaling-stroke"  x="-540" y="-540" rx="0" ry="0" width="1080" height="1080" />
</g>
<g transform="matrix(1 0 0 1 540 540)" id="ea343d68-fbf4-4a05-a416-4d7b019b14f0"  >
</g>
<g transform="matrix(55.87 0 0 55.87 540 540)"  >
<path style="stroke: rgb(0,0,0); stroke-width: 1.3; stroke-dasharray: none; stroke-linecap: round; stroke-dashoffset: 0; stroke-linejoin: round; stroke-miterlimit: 4; fill: none; fill-rule: nonzero; opacity: 1;"  transform=" translate(-9.27, -10.5)" d="M 17.5421 10.2026 L 9.33802 18.4757 C 9.0197 18.8 8.63992 19.0577 8.22088 19.2335 C 7.80183 19.4094 7.35194 19.5 6.89748 19.5 C 6.44302 19.5 5.99313 19.4094 5.57409 19.2335 C 5.15504 19.0577 4.77526 18.8 4.45694 18.4757 L 2.00262 15.98 C 1.36012 15.3274 1 14.4483 1 13.5325 C 1 12.6167 1.36012 11.7377 2.00262 11.0851 L 10.7444 2.31571 C 11.0008 2.05724 11.3058 1.85209 11.6418 1.71208 C 11.9779 1.57208 12.3383 1.5 12.7024 1.5 C 13.0664 1.5 13.4269 1.57208 13.7629 1.71208 C 14.099 1.85209 14.404 2.05724 14.6603 2.31571 L 15.6393 3.29469 C 15.8978 3.55105 16.1029 3.85605 16.2429 4.1921 C 16.3829 4.52814 16.455 4.88859 16.455 5.25263 C 16.455 5.61668 16.3829 5.97712 16.2429 6.31317 C 16.1029 6.64921 15.8978 6.95422 15.6393 7.21058 L 7.89024 14.9872 C 7.76206 15.1164 7.60956 15.219 7.44154 15.289 C 7.27351 15.359 7.09329 15.3951 6.91127 15.3951 C 6.72925 15.3951 6.54902 15.359 6.381 15.289 C 6.21298 15.219 6.06048 15.1164 5.9323 14.9872 L 5.4497 14.4908 C 5.32047 14.3626 5.21789 14.2101 5.14789 14.0421 C 5.07789 13.8741 5.04185 13.6939 5.04185 13.5119 C 5.04185 13.3298 5.07789 13.1496 5.14789 12.9816 C 5.21789 12.8136 5.32047 12.6611 5.4497 12.5329 L 10.6479 7.37604" stroke-linecap="round" />
</g>
</svg>