<?xml version="1.0" encoding="UTF-8" standalone="no" ?>
<!DOCTYPE svg PUBLIC "-//W3C//DTD SVG 1.1//EN" "http://www.w3.org/Graphics/SVG/1.1/DTD/svg11.dtd">
<svg xmlns="http://www.w3.org/2000/svg" xmlns:xlink="http://www.w3.org/1999/xlink" version="1.1" width="1080" height="1080" viewBox="0 0 1080 1080" xml:space="preserve">
<desc>Created with Fabric.js 5.2.4</desc>
<defs>
</defs>
<g transform="matrix(1 0 0 1 540 540)" id="bab15695-775c-41be-bc51-b21bad852034"  >
<rect style="stroke: none; stroke-width: 1; stroke-dasharray: none; stroke-linecap: butt; stroke-dashoffset: 0; stroke-linejoin: miter; stroke-miterlimit: 4; fill: rgb(255,255,255); fill-rule: nonzero; opacity: 1; visibility: hidden;" vector-effect="non-scaling-stroke"  x="-540" y="-540" rx="0" ry="0" width="1080" height="1080" />
</g>
<g transform="matrix(1 0 0 1 540 540)" id="f0204d7a-d62a-46c6-aebd-0c88d4e37b2a"  >
</g>
<g transform="matrix(2.12 0 0 2.12 540 540)"  >
<g style=""   >
		<g transform="matrix(1.01 0 0 1.01 0 0)" id="Layer_1"  >
<path style="stroke: none; stroke-width: 1; stroke-dasharray: none; stroke-linecap: butt; stroke-dashoffset: 0; stroke-linejoin: miter; stroke-miterlimit: 4; fill: rgb(0,0,0); fill-rule: nonzero; opacity: 1;" vector-effect="non-scaling-stroke"  transform=" translate(-254.33, -254.33)" d="M 468.881 167.536 L 409.88599999999997 167.536 L 361.28299999999996 63.30800000000001 C 349.56499999999994 38.18000000000001 319.58899999999994 27.271000000000008 294.46099999999996 38.98700000000001 C 269.27299999999997 50.732000000000006 258.393 80.619 270.13899999999995 105.80900000000001 L 298.92299999999994 167.536 L 209.72999999999996 167.536 L 238.51399999999995 105.809 C 244.18999999999994 93.636 244.78599999999994 79.982 240.19299999999996 67.36099999999999 C 224.90599999999995 25.36999999999999 166.17699999999996 22.975999999999992 147.36999999999995 63.30799999999999 L 98.76699999999994 167.536 L 39.77099999999994 167.536 C 14.014999999999937 167.536 -4.96200000000006 191.657 1.1529999999999347 216.711 L 53.865999999999936 432.747 C 59.844999999999935 457.255 81.63999999999993 474.372 106.86699999999993 474.372 L 401.78499999999997 474.372 C 427.01199999999994 474.372 448.806 457.255 454.78599999999994 432.747 L 507.49899999999997 216.711 C 513.606 191.69 494.671 167.536 468.881 167.536 z M 299.14099999999996 92.286 C 293.49999999999994 80.18900000000001 302.37899999999996 66.277 315.68399999999997 66.277 C 322.57399999999996 66.277 329.183 70.188 332.282 76.832 L 374.578 167.536 L 334.231 167.536 z M 176.37099999999998 76.832 C 180.63199999999998 67.695 191.53099999999998 63.727999999999994 200.66799999999998 67.98899999999999 C 209.80499999999998 72.24999999999999 213.772 83.14899999999999 209.51199999999997 92.28599999999999 L 174.42199999999997 167.536 L 134.07499999999996 167.536 z M 476.411 209.125 L 423.698 425.16200000000003 C 421.22499999999997 435.295 412.215 442.37100000000004 401.78499999999997 442.37100000000004 L 106.86699999999996 442.37100000000004 C 96.43699999999995 442.37100000000004 87.42699999999996 435.29400000000004 84.95399999999997 425.16100000000006 L 32.240999999999964 209.12500000000006 C 31.049999999999965 204.24700000000007 34.72999999999996 199.53600000000006 39.770999999999965 199.53600000000006 L 468.87999999999994 199.53600000000006 C 473.92299999999994 199.53600000000006 477.60099999999994 204.24700000000007 476.41099999999994 209.12500000000006 z" stroke-linecap="round" />
</g>
		<g transform="matrix(1.01 0 0 1.01 0 67.07)" id="Layer_1"  >
<path style="stroke: none; stroke-width: 1; stroke-dasharray: none; stroke-linecap: butt; stroke-dashoffset: 0; stroke-linejoin: miter; stroke-miterlimit: 4; fill: rgb(0,0,0); fill-rule: nonzero; opacity: 1;" vector-effect="non-scaling-stroke"  transform=" translate(-254.33, -320.95)" d="M 254.326 248.338 C 245.489 248.338 238.326 255.50199999999998 238.326 264.33799999999997 L 238.326 377.56999999999994 C 238.326 386.40599999999995 245.489 393.56999999999994 254.326 393.56999999999994 C 263.163 393.56999999999994 270.326 386.40599999999995 270.326 377.56999999999994 L 270.326 264.33799999999997 C 270.326 255.50099999999998 263.163 248.33799999999997 254.32600000000002 248.33799999999997 z" stroke-linecap="round" />
</g>
		<g transform="matrix(1.01 0 0 1.01 94.62 67.07)" id="Layer_1"  >
<path style="stroke: none; stroke-width: 1; stroke-dasharray: none; stroke-linecap: butt; stroke-dashoffset: 0; stroke-linejoin: miter; stroke-miterlimit: 4; fill: rgb(0,0,0); fill-rule: nonzero; opacity: 1;" vector-effect="non-scaling-stroke"  transform=" translate(-348.33, -320.95)" d="M 364.476 248.723 C 355.854 246.79700000000003 347.298 252.22400000000002 345.371 260.84700000000004 L 320.05699999999996 374.07900000000006 C 317.82699999999994 384.05500000000006 325.41299999999995 393.5730000000001 335.686 393.5730000000001 C 343.012 393.5730000000001 349.621 388.5080000000001 351.286 381.0600000000001 L 376.6 267.8280000000001 C 378.52700000000004 259.2050000000001 373.1 250.6510000000001 364.476 248.7230000000001 z" stroke-linecap="round" />
</g>
		<g transform="matrix(1.01 0 0 1.01 -94.62 67.07)" id="Layer_1"  >
<path style="stroke: none; stroke-width: 1; stroke-dasharray: none; stroke-linecap: butt; stroke-dashoffset: 0; stroke-linejoin: miter; stroke-miterlimit: 4; fill: rgb(0,0,0); fill-rule: nonzero; opacity: 1;" vector-effect="non-scaling-stroke"  transform=" translate(-160.33, -320.95)" d="M 163.281 260.847 C 161.352 252.22299999999998 152.80200000000002 246.79399999999998 144.17600000000002 248.72299999999998 C 135.55300000000003 250.65099999999998 130.12500000000003 259.205 132.05300000000003 267.828 L 157.36700000000002 381.05999999999995 C 159.032 388.5079999999999 165.639 393.5729999999999 172.967 393.5729999999999 C 183.23000000000002 393.5729999999999 190.828 384.06299999999993 188.596 374.07899999999995 z" stroke-linecap="round" />
</g>
</g>
</g>
</svg>