<?xml version="1.0" encoding="UTF-8" standalone="no" ?>
<!DOCTYPE svg PUBLIC "-//W3C//DTD SVG 1.1//EN" "http://www.w3.org/Graphics/SVG/1.1/DTD/svg11.dtd">
<svg xmlns="http://www.w3.org/2000/svg" xmlns:xlink="http://www.w3.org/1999/xlink" version="1.1" width="1080" height="400" viewBox="0 0 1080 400" xml:space="preserve">
<desc>Created with Fabric.js 5.2.4</desc>
<defs>
</defs>
<g transform="matrix(1 0 0 1 540 200)" id="5ee404c0-bce1-4a78-a946-ebaeaf8b666f"  >
<rect style="stroke: none; stroke-width: 1; stroke-dasharray: none; stroke-linecap: butt; stroke-dashoffset: 0; stroke-linejoin: miter; stroke-miterlimit: 4; fill: rgb(255,255,255); fill-rule: nonzero; opacity: 1; visibility: hidden;" vector-effect="non-scaling-stroke"  x="-540" y="-200" rx="0" ry="0" width="1080" height="400" />
</g>
<g transform="matrix(Infinity NaN NaN Infinity 0 0)" id="a84f5b0d-4564-413e-845a-10e48d7b4de7"  >
</g>
<g transform="matrix(1.19 0 0 1.19 540 200)"  >
<path style="stroke: none; stroke-width: 1; stroke-dasharray: none; stroke-linecap: butt; stroke-dashoffset: 0; stroke-linejoin: miter; stroke-miterlimit: 4; fill: rgb(13,13,13); fill-rule: nonzero; opacity: 1;"  transform=" translate(-442.56, -130.45)" d="M 884.55 52.78 L 835.91 100.49000000000001 L 883 159.57 C 884.33 161.23 883.14 163.69 881.01 163.69 L 850.16 163.69 C 849.37 163.69 848.63 163.32999999999998 848.15 162.7 L 815.52 120.47 L 806.48 129.34 C 806.24 129.58 805.96 129.73 805.66 129.81 L 805.66 161.14 C 805.66 162.54 804.52 163.67999999999998 803.12 163.67999999999998 L 779.36 163.67999999999998 C 777.96 163.67999999999998 776.82 162.54 776.82 161.14 L 776.82 7.24 C 776.82 5.84 777.96 4.7 779.36 4.7 L 803.12 4.7 C 804.52 4.7 805.66 5.84 805.66 7.24 L 805.66 93.11 L 848.8 50.26 C 849.28 49.79 849.92 49.519999999999996 850.5899999999999 49.519999999999996 L 883.2099999999999 49.519999999999996 C 884.92 49.519999999999996 885.7599999999999 51.589999999999996 884.54 52.79 Z M 617.0899999999999 52.78 L 567.6899999999999 100.68 L 614.6299999999999 159.57 C 615.9599999999999 161.23 614.7699999999999 163.69 612.6399999999999 163.69 L 581.7899999999998 163.69 C 580.9999999999999 163.69 580.2599999999999 163.32999999999998 579.7799999999999 162.7 L 547.1999999999998 120.52999999999999 L 538.1099999999998 129.33999999999997 C 537.8699999999998 129.57999999999998 537.5899999999998 129.72999999999996 537.2899999999997 129.80999999999997 L 537.2899999999997 161.14 C 537.2899999999997 162.54 536.1499999999997 163.67999999999998 534.7499999999998 163.67999999999998 L 510.9899999999998 163.67999999999998 C 509.5899999999998 163.67999999999998 508.44999999999976 162.54 508.44999999999976 161.14 L 508.44999999999976 77.66999999999999 C 501.4899999999998 80.71999999999998 493.9899999999998 82.61999999999999 486.52999999999975 83.29999999999998 C 489.12999999999977 90.00999999999998 490.56999999999977 97.29999999999998 490.56999999999977 104.91999999999999 C 490.56999999999977 138.07 463.5999999999998 165.02999999999997 430.45999999999975 165.02999999999997 C 418.7499999999998 165.02999999999997 407.8099999999998 161.64999999999998 398.5599999999998 155.82999999999998 C 397.9699999999998 157.16 397.5999999999998 158.55999999999997 397.4899999999998 159.95999999999998 C 397.1499999999998 164.36999999999998 399.4099999999998 169.24999999999997 402.9899999999998 171.83999999999997 C 407.6599999999998 175.20999999999998 415.2399999999998 176.21999999999997 426.8599999999998 175.00999999999996 C 429.8999999999998 174.68999999999997 432.93999999999977 174.29999999999995 436.1599999999998 173.87999999999997 C 444.5399999999998 172.78999999999996 453.2099999999998 171.64999999999998 462.3599999999998 171.92999999999998 C 474.0999999999998 172.29 490.63999999999976 175.31999999999996 502.8099999999998 187.76 C 513.3599999999998 198.54 517.9099999999997 214.39 514.6799999999997 229.12 C 511.6399999999997 242.97 501.9499999999997 254.84 489.08999999999975 260.68 C 487.7499999999998 261.29 486.1799999999997 260.64 485.65999999999974 259.27 L 477.4299999999997 237.69 C 476.9899999999997 236.53 477.4299999999997 235.19 478.5199999999997 234.6 C 482.8199999999997 232.23999999999998 486.2199999999997 227.85 487.2599999999997 223.10999999999999 C 488.4499999999997 217.67999999999998 486.6399999999997 211.36999999999998 482.7499999999997 207.39999999999998 C 476.8199999999997 201.33999999999997 466.8999999999997 200.15999999999997 461.5199999999997 199.99999999999997 C 454.6299999999997 199.78999999999996 447.4299999999997 200.72999999999996 439.8099999999997 201.72999999999996 C 436.5499999999997 202.14999999999995 433.1899999999997 202.58999999999997 429.77999999999975 202.94999999999996 C 417.89999999999975 204.18999999999997 400.4899999999997 204.66999999999996 386.56999999999977 194.61999999999995 C 375.1099999999998 186.33999999999995 368.40999999999974 171.88999999999996 369.50999999999976 157.78999999999996 C 370.14999999999975 149.56999999999996 373.43999999999977 141.63999999999996 378.5599999999998 135.17999999999995 C 373.3599999999998 126.28999999999995 370.3599999999998 115.95999999999995 370.3599999999998 104.93999999999996 C 370.3599999999998 71.78999999999996 397.3299999999998 44.829999999999956 430.4699999999998 44.829999999999956 C 435.2199999999998 44.829999999999956 439.8299999999998 45.399999999999956 444.2699999999998 46.44999999999995 C 450.1299999999998 47.549999999999955 455.5699999999998 49.20999999999995 461.5199999999998 51.02999999999995 C 464.98999999999984 52.089999999999954 468.5699999999998 53.189999999999955 472.67999999999984 54.31999999999995 C 481.0699999999998 56.62999999999995 492.0799999999998 54.909999999999954 500.73999999999984 49.94999999999995 C 502.85999999999984 48.73999999999995 505.8799999999998 46.689999999999955 508.46999999999986 43.799999999999955 L 508.46999999999986 7.24 C 508.46999999999986 5.84 509.60999999999984 4.7 511.0099999999999 4.7 L 534.7699999999999 4.7 C 536.1699999999998 4.7 537.3099999999998 5.84 537.3099999999998 7.24 L 537.3099999999998 93.28999999999999 L 581.5499999999998 50.06999999999999 C 581.9099999999999 49.71999999999999 582.3899999999999 49.519999999999996 582.8899999999999 49.519999999999996 L 615.7699999999999 49.519999999999996 C 617.4799999999999 49.519999999999996 618.3199999999998 51.589999999999996 617.0999999999999 52.79 Z M 462.4999999999999 104.93 C 462.4999999999999 90.92 453.4499999999999 79.02000000000001 440.89999999999986 74.68 C 440.89999999999986 74.68 440.89999999999986 74.68 440.89999999999986 74.68 C 440.16999999999985 74.43 439.41999999999985 74.21000000000001 438.66999999999985 74.01 C 438.47999999999985 73.96000000000001 438.28999999999985 73.91000000000001 438.09999999999985 73.86 C 437.45999999999987 73.7 436.80999999999983 73.56 436.14999999999986 73.44 C 435.73999999999984 73.37 435.3199999999999 73.31 434.89999999999986 73.25 C 434.40999999999985 73.18 433.91999999999985 73.1 433.41999999999985 73.06 C 432.4499999999998 72.97 431.46999999999986 72.91 430.46999999999986 72.91 C 429.46999999999986 72.91 428.49999999999983 72.97 427.52999999999986 73.06 C 427.36999999999983 73.08 427.20999999999987 73.08 427.04999999999984 73.10000000000001 C 426.22999999999985 73.19000000000001 425.41999999999985 73.32000000000001 424.60999999999984 73.47000000000001 C 424.30999999999983 73.53000000000002 423.99999999999983 73.58000000000001 423.6999999999998 73.64000000000001 C 409.2799999999998 76.76000000000002 398.4399999999998 89.60000000000002 398.4399999999998 104.94000000000001 C 398.4399999999998 122.60000000000001 412.80999999999983 136.97000000000003 430.4699999999998 136.97000000000003 C 448.12999999999977 136.97000000000003 462.4999999999998 122.60000000000002 462.4999999999998 104.94000000000003 Z M 77.06 72.44 C 74.2 71.81 71.36 71.25 68.61 70.71 C 61.5 69.32 54.79 68 48.89 65.63999999999999 C 41.72 62.76999999999999 36.46 58.20999999999999 34.81 53.44999999999999 C 32.760000000000005 47.50999999999999 36.080000000000005 39.25999999999999 42.370000000000005 34.65999999999999 C 49.78 29.24999999999999 57.50000000000001 27.43999999999999 67.41 28.809999999999988 C 81.19 30.709999999999987 91.72 36.87999999999999 98.74 47.16999999999999 C 99.49 48.26999999999999 100.99 48.579999999999984 102.13 47.87999999999999 L 122.03999999999999 35.75999999999999 C 123.27999999999999 35.00999999999999 123.61999999999999 33.37999999999999 122.83 32.16999999999999 C 111.3 14.63 93.53 3.77 71.29 0.71 C 54.01 -1.68 39.08 1.94 25.64 11.76 C 9.33 23.68 1.92 45.12 8.01 62.73 C 12.44 75.53 23.22 85.92 38.35 91.97999999999999 C 46.72 95.32999999999998 55.08 96.96999999999998 63.16 98.54999999999998 C 65.86 99.07999999999998 68.42 99.57999999999998 70.94 100.13999999999999 C 78.03 101.69999999999999 86.89 104.16999999999999 92.57 109.42999999999998 C 95.50999999999999 112.14999999999998 96.42999999999999 118.02999999999997 94.53999999999999 121.99999999999997 C 88.13999999999999 135.44999999999996 69.75999999999999 139.26999999999998 54.919999999999995 136.07999999999998 C 37.019999999999996 132.23999999999998 29.589999999999996 121.31999999999998 28.399999999999995 111.59999999999998 C 28.239999999999995 110.28999999999998 27.149999999999995 109.29999999999998 25.829999999999995 109.32999999999998 L 2.4799999999999933 109.82999999999998 C 1.0199999999999934 109.85999999999999 -0.11000000000000654 111.11999999999999 -6.661338147750939e-15 112.57999999999998 C 1.7799999999999934 137.80999999999997 20.71999999999999 157.76 48.97999999999999 163.82 C 54.48999999999999 165 59.959999999999994 165.57 65.28999999999999 165.57 C 89.47 165.57 110.81 153.84 120.16 134.18 C 127.41 118.94000000000001 123.91 99.78 111.85 88.60000000000001 C 101.16999999999999 78.71000000000001 87.63999999999999 74.76 77.06 72.42000000000002 Z M 248.98 104.93 C 248.98 138.08 222.01 165.04000000000002 188.87 165.04000000000002 C 155.73000000000002 165.04000000000002 128.76 138.08 128.76 104.93000000000002 C 128.76 71.78000000000003 155.73 44.82000000000002 188.87 44.82000000000002 C 222.01000000000002 44.82000000000002 248.98000000000002 71.78000000000003 248.98000000000002 104.93000000000002 Z M 220.89999999999998 104.93 C 220.89999999999998 87.27000000000001 206.52999999999997 72.9 188.86999999999998 72.9 C 171.20999999999998 72.9 156.83999999999997 87.27000000000001 156.83999999999997 104.93 C 156.83999999999997 122.59 171.20999999999998 136.96 188.86999999999998 136.96 C 206.52999999999997 136.96 220.89999999999998 122.59 220.89999999999998 104.93 Z M 770.75 137.09 L 751.66 124.19 C 750.56 123.45 749.0699999999999 123.67999999999999 748.25 124.73 C 742.19 132.43 732.94 136.96 723.07 136.96 C 699.35 136.96 681.5600000000001 111.03 696.57 86.03 C 696.8000000000001 85.65 698.0400000000001 84.02 699.1400000000001 82.83 C 700.3100000000001 81.56 701.3700000000001 80.73 701.9800000000001 80.27 C 716.9300000000002 69 735.1100000000001 71.39999999999999 746.0100000000001 82.58999999999999 C 746.94 83.53999999999999 748.44 83.60999999999999 749.4500000000002 82.75999999999999 L 767.0700000000002 67.91999999999999 C 768.1800000000002 66.97999999999999 768.2800000000002 65.29999999999998 767.2900000000002 64.22999999999999 C 755.9100000000002 51.86999999999999 739.9400000000002 44.82999999999999 723.0700000000002 44.82999999999999 C 689.9200000000002 44.82999999999999 662.9600000000002 71.78999999999999 662.9600000000002 104.94 C 662.9600000000002 138.09 689.9300000000002 165.05 723.0700000000002 165.05 C 742.1800000000002 165.05 760.0300000000002 156.01000000000002 771.3600000000001 140.74 C 772.2300000000001 139.57000000000002 771.9600000000002 137.91 770.7500000000001 137.10000000000002 Z M 305.91 44.3 C 277.87 45.82 254.99 70.92999999999999 254.99 99.00999999999999 L 254.99 160.73999999999998 C 254.99 162.14 256.13 163.27999999999997 257.53000000000003 163.27999999999997 L 280.53000000000003 163.27999999999997 C 281.93 163.27999999999997 283.07000000000005 162.14 283.07000000000005 160.73999999999998 L 283.07000000000005 98.11999999999998 C 283.07000000000005 83.08999999999997 295.9800000000001 71.00999999999998 311.30000000000007 72.40999999999997 C 324.68000000000006 73.62999999999997 334.7100000000001 85.27999999999997 334.7100000000001 98.71999999999997 L 334.7100000000001 160.74999999999997 C 334.7100000000001 162.14999999999998 335.8500000000001 163.28999999999996 337.2500000000001 163.28999999999996 L 360.2500000000001 163.28999999999996 C 361.6500000000001 163.28999999999996 362.79000000000013 162.14999999999998 362.79000000000013 160.74999999999997 L 362.79000000000013 98.12999999999997 C 362.79000000000013 67.41999999999996 336.98000000000013 42.62999999999997 305.91000000000014 44.30999999999997 Z M 651.97 49.739999999999995 L 628.97 49.739999999999995 C 627.57 49.739999999999995 626.4300000000001 50.879999999999995 626.4300000000001 52.279999999999994 L 626.4300000000001 160.73999999999998 C 626.4300000000001 162.14 627.57 163.27999999999997 628.97 163.27999999999997 L 651.97 163.27999999999997 C 653.37 163.27999999999997 654.51 162.14 654.51 160.73999999999998 L 654.51 52.29 C 654.51 50.89 653.37 49.75 651.97 49.75 Z M 640.32 0.9399999999999977 C 630.96 0.9399999999999977 623.37 8.529999999999998 623.37 17.889999999999997 C 623.37 27.249999999999996 630.96 34.839999999999996 640.32 34.839999999999996 C 649.6800000000001 34.839999999999996 657.2700000000001 27.249999999999996 657.2700000000001 17.889999999999997 C 657.2700000000001 8.529999999999998 649.6800000000001 0.9399999999999977 640.32 0.9399999999999977 Z" stroke-linecap="round" />
</g>
</svg>