<?xml version="1.0" encoding="UTF-8" standalone="no" ?>
<!DOCTYPE svg PUBLIC "-//W3C//DTD SVG 1.1//EN" "http://www.w3.org/Graphics/SVG/1.1/DTD/svg11.dtd">
<svg xmlns="http://www.w3.org/2000/svg" xmlns:xlink="http://www.w3.org/1999/xlink" version="1.1" width="1080" height="1080" viewBox="0 0 1080 1080" xml:space="preserve">
<desc>Created with Fabric.js 5.2.4</desc>
<defs>
</defs>
<rect x="0" y="0" width="100%" height="100%" fill="transparent"></rect>
<g transform="matrix(1 0 0 1 540 540)" id="dc1a606c-219e-4c1e-b526-999da7068869"  >
<rect style="stroke: none; stroke-width: 1; stroke-dasharray: none; stroke-linecap: butt; stroke-dashoffset: 0; stroke-linejoin: miter; stroke-miterlimit: 4; fill: rgb(0,0,0); fill-rule: nonzero; opacity: 1; visibility: hidden;" vector-effect="non-scaling-stroke"  x="-540" y="-540" rx="0" ry="0" width="1080" height="1080" />
</g>
<g transform="matrix(1 0 0 1 540 540)" id="ea343d68-fbf4-4a05-a416-4d7b019b14f0"  >
</g>
<g transform="matrix(19.32 0 0 19.32 540 540)" id="Layer_1"  >
<path style="stroke: none; stroke-width: 1; stroke-dasharray: none; stroke-linecap: butt; stroke-dashoffset: 0; stroke-linejoin: miter; stroke-miterlimit: 4; fill: rgb(0,0,0); fill-rule: nonzero; opacity: 1;"  transform=" translate(-27.95, -27.95)" d="M 0 27.9 C 0 12.5 12.5 0 27.9 0 C 43.4 0 55.9 12.5 55.9 28 C 55.9 43.4 43.4 55.9 27.9 55.9 C 12.5 55.9 0 43.4 0 27.9 z M 24 14.7 C 23.4 14.7 22.9 14.7 22.3 14.7 C 18.8 14.799999999999999 15.4 15.2 12 16 C 11.3 16.2 10.6 16.4 9.9 16.7 C 8.700000000000001 17.3 8.200000000000001 18.8 8.700000000000001 20 C 9.200000000000001 21.3 10.600000000000001 21.9 12 21.6 C 14.2 21.1 16.3 20.6 18.5 20.400000000000002 C 22.9 19.900000000000002 27.4 20.000000000000004 31.8 20.700000000000003 C 36.3 21.400000000000002 40.6 22.6 44.6 24.900000000000002 C 45.9 25.700000000000003 47.6 25.200000000000003 48.300000000000004 23.900000000000002 C 49.00000000000001 22.6 48.6 21.000000000000004 47.2 20.200000000000003 C 45.2 19.000000000000004 43.1 18.1 40.900000000000006 17.400000000000002 C 35.4 15.5 29.7 14.7 24 14.7 z M 10.4 28.1 C 10.4 29.700000000000003 11.8 30.700000000000003 13.4 30.200000000000003 C 17.5 29.000000000000004 21.6 28.700000000000003 25.8 29.000000000000004 C 31.200000000000003 29.400000000000002 36.4 30.700000000000003 41.1 33.5 C 42.300000000000004 34.2 43.6 33.8 44.2 32.8 C 44.900000000000006 31.699999999999996 44.5 30.4 43.300000000000004 29.599999999999998 C 41.2 28.299999999999997 38.900000000000006 27.299999999999997 36.6 26.499999999999996 C 33 25.299999999999997 29.3 24.599999999999998 25.6 24.399999999999995 C 21 24.099999999999994 16.400000000000002 24.599999999999994 12.000000000000002 25.899999999999995 C 11 26.2 10.4 27 10.4 28.1 z M 23.6 33.4 C 21.5 33.6 19.400000000000002 33.699999999999996 17.3 34 C 15.9 34.2 14.5 34.5 13 34.8 C 11.6 35.099999999999994 11 36.599999999999994 11.8 37.699999999999996 C 12.4 38.49999999999999 13.200000000000001 38.49999999999999 14.100000000000001 38.3 C 17.900000000000002 37.5 21.700000000000003 37 25.6 37.3 C 30.1 37.599999999999994 34.3 38.699999999999996 38.2 41.099999999999994 C 39.1 41.699999999999996 40.2 41.39999999999999 40.800000000000004 40.49999999999999 C 41.300000000000004 39.599999999999994 41.1 38.49999999999999 40.1 37.99999999999999 C 39.1 37.39999999999999 38.1 36.89999999999999 37.1 36.39999999999999 C 32.9 34.3 28.4 33.5 23.6 33.4 z" stroke-linecap="round" />
</g>
</svg>