<?xml version="1.0" encoding="UTF-8" standalone="no" ?>
<!DOCTYPE svg PUBLIC "-//W3C//DTD SVG 1.1//EN" "http://www.w3.org/Graphics/SVG/1.1/DTD/svg11.dtd">
<svg xmlns="http://www.w3.org/2000/svg" xmlns:xlink="http://www.w3.org/1999/xlink" version="1.1" width="1080" height="1080" viewBox="0 0 1080 1080" xml:space="preserve">
<desc>Created with Fabric.js 5.2.4</desc>
<defs>
</defs>
<rect x="0" y="0" width="100%" height="100%" fill="transparent"></rect>
<g transform="matrix(1 0 0 1 540 540)" id="dc1a606c-219e-4c1e-b526-999da7068869"  >
<rect style="stroke: none; stroke-width: 1; stroke-dasharray: none; stroke-linecap: butt; stroke-dashoffset: 0; stroke-linejoin: miter; stroke-miterlimit: 4; fill: rgb(0,0,0); fill-rule: nonzero; opacity: 1; visibility: hidden;" vector-effect="non-scaling-stroke"  x="-540" y="-540" rx="0" ry="0" width="1080" height="1080" />
</g>
<g transform="matrix(1 0 0 1 540 540)" id="ea343d68-fbf4-4a05-a416-4d7b019b14f0"  >
</g>
<g transform="matrix(22.36 0 0 22.36 540 540)" id="Layer_1"  >
<path style="stroke: none; stroke-width: 1; stroke-dasharray: none; stroke-linecap: butt; stroke-dashoffset: 0; stroke-linejoin: miter; stroke-miterlimit: 4; fill: rgb(0,0,0); fill-rule: evenodd; opacity: 1;"  transform=" translate(-24.15, -19.63)" d="M 32.9 0 C 36.699999999999996 -0.1 38.8 1.3 40.699999999999996 3.1 C 42.4 3 44.5 2 45.8 1.4 C 46.199999999999996 1.2 46.9 0.9999999999999999 47.3 0.7999999999999999 C 46.599999999999994 2.8 45.3 4.2 43.8 5.3999999999999995 C 43.5 5.699999999999999 43.099999999999994 5.999999999999999 42.699999999999996 6.199999999999999 C 42.699999999999996 6.199999999999999 42.699999999999996 6.199999999999999 42.699999999999996 6.199999999999999 C 44.9 6.199999999999999 46.599999999999994 5.199999999999999 48.3 4.699999999999999 C 48.3 4.699999999999999 48.3 4.699999999999999 48.3 4.699999999999999 C 47.4 6.1 46.199999999999996 7.499999999999999 44.9 8.6 C 44.4 9 43.9 9.4 43.4 9.799999999999999 C 43.4 12.099999999999998 43.4 14.299999999999999 42.9 16.2 C 40.4 27.299999999999997 33.9 34.9 23.5 38.099999999999994 C 19.8 39.3 13.7 39.699999999999996 9.5 38.699999999999996 C 7.4 38.199999999999996 5.5 37.599999999999994 3.7 36.8 C 2.7 36.4 1.8000000000000003 35.9 0.9000000000000004 35.4 C 0.6000000000000003 35.199999999999996 0.3000000000000004 35 3.3306690738754696e-16 34.9 C 1.0000000000000004 34.9 2.1000000000000005 35 3.2000000000000006 35 C 4.200000000000001 35 5.1000000000000005 34.9 6 34.7 C 8.2 34.2 10.2 33.6 12 32.6 C 12.8 32.1 14.1 31.5 14.7 30.8 C 13.6 30.8 12.6 30.6 11.7 30.3 C 8.5 29.2 6.6 27.1 5.3999999999999995 24 C 6.3999999999999995 24.1 9.2 24.4 9.8 23.8 C 8.600000000000001 23.7 7.4 23 6.6000000000000005 22.5 C 4 20.7 1.9 18 1.9 13.8 C 2.1999999999999997 14 2.5999999999999996 14.100000000000001 2.9 14.3 C 3.5 14.600000000000001 4.2 14.700000000000001 5 14.9 C 5.3 15 6 15.200000000000001 6.4 15 C 6.4 15 6.4 15 6.4 15 C 5.9 14.4 5.1000000000000005 14 4.6000000000000005 13.4 C 2.9000000000000004 11.3 1.0000000000000004 8.3 2.0000000000000004 4.5 C 2.2000000000000006 3.5 3.0000000000000004 2.6 3.5000000000000004 1.7999999999999998 C 3.5000000000000004 1.7999999999999998 3.5000000000000004 1.7999999999999998 3.5000000000000004 1.7999999999999998 C 3.7000000000000006 2.1999999999999997 4.1000000000000005 2.5 4.4 2.8 C 5.2 3.8 6.300000000000001 4.8 7.4 5.6 C 11 8.399999999999999 14.3 10.2 19.5 11.5 C 20.8 11.8 22.4 12.1 24 12.1 C 23.6 10.799999999999999 23.7 8.7 24 7.3999999999999995 C 24.9 4.199999999999999 26.8 1.9999999999999991 29.6 0.6999999999999993 C 30.3 0.3999999999999993 31 0.1999999999999993 31.8 -6.661338147750939e-16 C 32.1 0.1 32.5 0.1 32.9 0 z" stroke-linecap="round" />
</g>
</svg>