<?xml version="1.0" encoding="UTF-8" standalone="no" ?>
<!DOCTYPE svg PUBLIC "-//W3C//DTD SVG 1.1//EN" "http://www.w3.org/Graphics/SVG/1.1/DTD/svg11.dtd">
<svg xmlns="http://www.w3.org/2000/svg" xmlns:xlink="http://www.w3.org/1999/xlink" version="1.1" width="1080" height="1080" viewBox="0 0 1080 1080" xml:space="preserve">
<desc>Created with Fabric.js 5.2.4</desc>
<defs>
</defs>
<rect x="0" y="0" width="100%" height="100%" fill="transparent"></rect>
<g transform="matrix(1 0 0 1 540 540)" id="dc1a606c-219e-4c1e-b526-999da7068869"  >
<rect style="stroke: none; stroke-width: 1; stroke-dasharray: none; stroke-linecap: butt; stroke-dashoffset: 0; stroke-linejoin: miter; stroke-miterlimit: 4; fill: rgb(255,255,255); fill-rule: nonzero; opacity: 1; visibility: hidden;" vector-effect="non-scaling-stroke"  x="-540" y="-540" rx="0" ry="0" width="1080" height="1080" />
</g>
<g transform="matrix(1 0 0 1 540 540)" id="ea343d68-fbf4-4a05-a416-4d7b019b14f0"  >
</g>
<g transform="matrix(49.09 0 0 49.09 540 540)"  >
<path style="stroke: rgb(0,0,0); stroke-width: 1.3; stroke-dasharray: none; stroke-linecap: round; stroke-dashoffset: 0; stroke-linejoin: round; stroke-miterlimit: 4; fill: none; fill-rule: nonzero; opacity: 1;"  transform=" translate(-11, -9.16)" d="M 21 1.00914 C 21 1.00914 19.1655 2.09288 18.1455 2.40005 C 17.5979 1.77052 16.8703 1.32432 16.0609 1.1218 C 15.2515 0.91929 14.3995 0.970226 13.6201 1.26774 C 12.8406 1.56524 12.1713 2.09496 11.7027 2.78524 C 11.2341 3.47554 10.9888 4.29308 11 5.12733 L 11 6.03642 C 9.40236 6.07784 7.81934 5.72352 6.39183 5.005 C 4.96431 4.28648 3.73665 3.22608 2.81818 1.91824 C 2.81818 1.91824 -0.818182 10.1001 7.36364 13.7365 C 5.49139 15.0073 3.26105 15.6445 1 15.5546 C 9.18182 20.1001 19.1818 15.5546 19.1818 5.10005 C 19.181 4.84683 19.1566 4.59423 19.1091 4.34551 C 20.0369 3.4305 21 1.00914 21 1.00914 Z" stroke-linecap="round" />
</g>
</svg>