<?xml version="1.0" encoding="UTF-8" standalone="no" ?>
<!DOCTYPE svg PUBLIC "-//W3C//DTD SVG 1.1//EN" "http://www.w3.org/Graphics/SVG/1.1/DTD/svg11.dtd">
<svg xmlns="http://www.w3.org/2000/svg" xmlns:xlink="http://www.w3.org/1999/xlink" version="1.1" width="1500" height="1080" viewBox="0 0 1500 1080" xml:space="preserve">
<desc>Created with Fabric.js 5.2.4</desc>
<defs>
</defs>
<rect x="0" y="0" width="100%" height="100%" fill="transparent"></rect>
<g transform="matrix(1 0 0 1 540 540)" id="dc1a606c-219e-4c1e-b526-999da7068869"  >
<rect style="stroke: none; stroke-width: 1; stroke-dasharray: none; stroke-linecap: butt; stroke-dashoffset: 0; stroke-linejoin: miter; stroke-miterlimit: 4; fill: rgb(0,0,0); fill-rule: nonzero; opacity: 1; visibility: hidden;" vector-effect="non-scaling-stroke"  x="-540" y="-540" rx="0" ry="0" width="1080" height="1080" />
</g>
<g transform="matrix(1 0 0 1 540 540)" id="ea343d68-fbf4-4a05-a416-4d7b019b14f0"  >
</g>
<g transform="matrix(25.17 0 0 25.17 750 540)"  >
<path style="stroke: none; stroke-width: 1; stroke-dasharray: none; stroke-linecap: butt; stroke-dashoffset: 0; stroke-linejoin: miter; stroke-miterlimit: 4; fill: rgb(0,0,0); fill-rule: nonzero; opacity: 1;"  transform=" translate(-28.8, -20.25)" d="M 28 0 C 34.6 0.2 41.5 0.4 48.3 0.7 C 53.599999999999994 0.8999999999999999 56.3 3.4000000000000004 57 8.7 C 57.8 15.299999999999999 57.8 22 57.3 28.599999999999998 C 57.099999999999994 30.7 56.8 32.8 56.199999999999996 34.9 C 55.4 37.9 53.199999999999996 39.6 50.199999999999996 40 C 47.3 40.3 44.4 40.5 41.5 40.5 C 30.9 40.5 20.3 40.4 9.600000000000001 40.1 C 3.700000000000001 39.9 1.4000000000000021 37.6 0.7000000000000011 31.8 C -0.29999999999999893 24 -0.29999999999999893 16.200000000000003 0.800000000000001 8.5 C 1 7 1.6 5.4 2.4 4.1 C 3.8 1.6999999999999997 6.1 0.8999999999999995 8.8 0.7999999999999998 C 15.1 0.5 21.4 0.2 28 0 z M 23 28.3 C 28.1 25.6 33 22.9 38.1 20.200000000000003 C 32.9 17.5 28 15 23 12.3 C 23 17.8 23 22.9 23 28.3 z" stroke-linecap="round" />
</g>
</svg>